<?xml version="1.0" encoding="UTF-8" standalone="no"?>
<!-- Created with Inkscape (http://www.inkscape.org/) -->

<svg
   version="1.1"
   id="svg2"
   xml:space="preserve"
   width="264.35999"
   height="82"
   viewBox="0 0 264.35999 82"
   sodipodi:docname="Ansys-logo.eps"
   xmlns:inkscape="http://www.inkscape.org/namespaces/inkscape"
   xmlns:sodipodi="http://sodipodi.sourceforge.net/DTD/sodipodi-0.dtd"
   xmlns="http://www.w3.org/2000/svg"
   xmlns:svg="http://www.w3.org/2000/svg"><defs
     id="defs6" /><sodipodi:namedview
     id="namedview4"
     pagecolor="#ffffff"
     bordercolor="#666666"
     borderopacity="1.0"
     inkscape:pageshadow="2"
     inkscape:pageopacity="0.0"
     inkscape:pagecheckerboard="0" /><g
     id="g8"
     inkscape:groupmode="layer"
     inkscape:label="ink_ext_XXXXXX"
     transform="matrix(1.3333333,0,0,-1.3333333,0,82)"><g
       id="g10"
       transform="scale(0.1)"><path
         d="M 199.992,615.039 0.00390625,124.383 H 134.527 L 334.195,615.039 H 199.992"
         style="fill:#f9af0f;fill-opacity:1;fill-rule:nonzero;stroke:none"
         id="path12" /><path
         d="M 298.191,434.355 425.848,124.383 H 569.867 L 366.926,599.324 298.191,434.355"
         style="fill:#100f0d;fill-opacity:1;fill-rule:nonzero;stroke:none"
         id="path14" /><path
         d="m 810.047,475.297 c -24.082,0 -45.699,-4.867 -64.844,-14.574 -19.273,-9.707 -34.836,-23.84 -46.816,-42.368 v 48.543 H 596.359 V 125.984 h 104.868 v 191.457 c 0,23.094 6.597,41.625 19.765,55.582 13.215,13.836 30.629,20.872 52.371,20.872 18.035,0 31.375,-5.321 39.895,-15.93 8.562,-10.66 12.847,-27.547 12.847,-50.641 V 127.227 h 104.868 v 205.039 c 0,48.168 -9.969,84.109 -29.891,107.953 -19.887,23.84 -50.273,35.695 -91.035,35.695 v -0.617"
         style="fill:#100f0d;fill-opacity:1;fill-rule:nonzero;stroke:none"
         id="path16" /><path
         d="m 1181.83,327.074 -57.56,13.219 c -13.82,3.691 -23.59,7.605 -29.15,11.797 -5.51,4.183 -8.3,9.965 -8.3,17.289 0,10.168 4.61,18.031 13.84,23.594 9.23,5.558 21.98,8.336 38.17,8.336 35.2,0 70.78,-12.477 106.97,-37.426 l 27.78,69.418 c -18.52,13.461 -39.39,23.836 -62.5,31.25 -23.09,7.387 -46.93,11.117 -71.51,11.117 -28.78,0 -54.22,-4.648 -76.7,-13.84 -22.48,-9.246 -39.78,-21.98 -52,-38.164 -12.3,-16.18 -18.413,-34.953 -18.413,-56.199 0,-26.801 7.783,-48.047 23.223,-63.485 15.44,-15.562 39.65,-26.929 72.63,-34.343 l 55.58,-12.469 c 17.17,-3.703 28.78,-7.883 35.08,-12.48 6.24,-4.641 9.38,-11.114 9.38,-19.395 0,-9.27 -4.51,-16.543 -13.59,-21.855 -9.02,-5.325 -21.62,-7.981 -37.8,-7.981 -22.72,0 -45.08,3.457 -67.31,10.383 -22.24,6.973 -42.62,16.68 -61.15,29.148 l -27.789,-72.129 c 18.902,-13.464 41.499,-23.718 67.689,-30.879 26.19,-7.156 54.97,-10.75 86.46,-10.75 45.83,0 81.77,9.375 107.96,28.165 26.18,18.777 39.28,44.589 39.28,77.449 0,27.297 -7.98,48.906 -23.97,64.844 -16.05,16.054 -41.37,27.917 -76.08,35.82 l -0.22,-0.434"
         style="fill:#100f0d;fill-opacity:1;fill-rule:nonzero;stroke:none"
         id="path18" /><path
         d="m 1958.77,290.02 c -15.94,15.933 -41.26,27.914 -75.97,35.699 l -57.69,13.215 c -13.82,3.691 -23.59,7.609 -29.15,11.793 -5.55,4.187 -8.34,9.972 -8.34,17.296 0,10.165 4.65,18.032 13.84,23.586 9.19,5.563 21.98,8.34 38.17,8.34 35.2,0 70.78,-12.472 106.97,-37.426 l 27.79,69.418 c -18.53,13.465 -39.4,23.84 -62.5,31.25 -23.1,7.383 -46.94,11.114 -71.52,11.114 -28.65,0 -54.22,-4.641 -76.7,-13.832 -22.48,-9.246 -39.9,-21.989 -52.13,-38.164 -12.26,-16.18 -18.4,-34.957 -18.4,-56.2 0,-26.808 7.75,-48.054 23.21,-63.492 15.44,-15.558 39.66,-26.926 72.51,-34.336 l 55.59,-12.472 c 17.17,-3.7 28.78,-7.879 35.08,-12.481 6.27,-4.648 9.37,-11.113 9.37,-19.394 0,-9.278 -4.51,-16.551 -13.59,-21.856 -9.01,-5.332 -21.61,-7.988 -37.79,-7.988 -22.73,0 -45.09,3.469 -67.32,10.39 -22.23,6.973 -42.61,16.68 -61.14,29.153 l -27.79,-72.129 c 19.02,-13.469 41.5,-23.723 67.68,-30.879 26.19,-7.16 54.97,-10.754 86.47,-10.754 45.83,0 81.76,9.375 107.96,28.164 26.18,18.77 39.27,44.59 39.27,77.442 -0.06,27.304 -8.04,48.918 -23.96,64.972 l 0.08,-0.429"
         style="fill:#100f0d;fill-opacity:1;fill-rule:nonzero;stroke:none"
         id="path20" /><path
         d="m 1384.9,0 h 101.46 l 189.86,464.801 h -101.48 l -81.82,-199.676 -81.84,199.676 H 1309.62 L 1440.54,140.75 1384.9,0"
         style="fill:#100f0d;fill-opacity:1;fill-rule:nonzero;stroke:none"
         id="path22" /></g></g></svg>
